<?xml version="1.0" encoding="utf-8"?>
<!-- Generator: Adobe Illustrator 22.1.0, SVG Export Plug-In . SVG Version: 6.00 Build 0)  -->
<svg version="1.1" id="Layer_1" xmlns="http://www.w3.org/2000/svg" xmlns:xlink="http://www.w3.org/1999/xlink" x="0px" y="0px"
	 viewBox="0 0 860 248" style="enable-background:new 0 0 860 248;" xml:space="preserve">
<path d="M202.4,129.6c7,0,13.5,1.5,19.7,3.8c8.7,3.3,16,8.4,20.2,17.1c1.7,3.4,1.6,6.8-0.3,10.2c-0.4,0.7-0.5,1.6-0.4,2.3
	c0.5,3,0.6,5.8-1.7,8.3c-0.6,0.7-0.7,1.9-0.9,2.9c-0.5,3-0.8,6.1-3.2,8.5c-0.3,0.3-0.3,0.9-0.4,1.3c-0.1,1.4-0.2,2.9-0.3,4.3
	c-0.1,2.6-0.9,4.7-3.3,6c-0.3,0.2-0.6,0.5-0.8,0.8c-2.2,4.3-6.4,6.2-10.2,8.7c-2.3,1.5-4.8,1.7-7.4,1.9c-1.5,0.1-3.1,0.4-4.6,0.8
	c-8.2,2.1-16,1.3-23.4-3c-13.4-7.9-24.9-18-36.2-28.5c-0.4-0.4-0.9-0.8-1.3-1.3c-0.1-0.1-0.2-0.1-0.7-0.4c1.6,2.9,3.2,5.4,4.5,8
	c1.8,3.5,3.4,7,5,10.6c1.8,3.9,3.6,7.9,5.1,11.9c1.5,4.1,2.7,8.3,1.9,12.7c0,0.2-0.1,0.5-0.3,1.1c-1.5-0.6-3.2-0.7-4.1-1.7
	c-3.9-4-7.9-8-11.1-12.5c-2-2.9-3.5-6.2-5.3-9.3c-1.9-3.3-3.1-7-4.6-10.6c-0.2-0.6-0.6-1.1-1.2-1.6c0.6,3,1.3,6,1.7,9
	c0.9,7.1,1.8,14.1,2.6,21.2c0.4,3.3-0.7,6.1-2.4,9.2c-3.2,5.8-7.5,8.1-14,7.5c-3.2-0.3-5.9-0.5-8.2-2.8c-0.4-0.4-1.1-0.5-1.6-0.5
	c-2,0.1-3.6-0.8-5-2.2c-0.6-0.6-1.2-1.2-1.7-1.9c-1.5-2.1-3-3.9-5.7-4.8c-1.3-0.4-2.3-1.7-3.4-2.6c-2.1-1.9-3.9-4-6.8-4.9
	c-2.3-0.7-3.2-3.1-4.2-5.2c-0.3-0.7-0.9-1.5-1.6-1.8c-3.8-1.5-5.3-4.5-5.6-8.3c-0.8-7.7,0-15.2,4-22.1c2.4-4.2,5.2-8.1,9.4-10.9
	c1.4-0.9,2.8-1.9,4.5-3.1c-2.4-0.2-4.4-0.4-6.5-0.6c-10.5-0.8-20.8-2.7-30.3-7.6c-3.6-1.9-6.9-4.1-9.2-7.6c-1-1.5-2.4-2.9-3.7-4.2
	c-2.1-2-3.2-4.4-3-7.3c0.2-2.3-0.9-3.7-2.7-5.1c-4-3-6.8-6.9-7.1-12.2c-0.1-1-0.8-2.2-1.6-2.9c-3.1-2.9-4.6-6.5-4.5-10.7
	c0-3-1-5.1-3.4-7.1c-4-3.2-6.7-7.3-6.9-12.8C20,74.2,24.8,67,32.3,68c3.7,0.5,7.3,1.6,10.8,2.9c6.6,2.6,12.3,6.8,18.1,10.8
	c12.7,8.7,24.2,18.8,34.7,30.1c9.1,9.7,16.7,20.5,24,31.5c0.3,0.5,0.7,1,1.1,1.5c0.3-1.3,0.8-2.6,0.9-3.8c0.1-0.8-0.3-1.7-0.7-2.5
	c-2.6-4.6-5.6-9-8-13.8c-5.2-10.5-8.9-21.5-10.7-33.1c-0.1-0.7-0.2-1.5-0.6-2.1c-2.5-3.7-1.8-7.6-0.8-11.5c0.2-0.7,1.1-1.3,1.7-1.9
	c0.5,0.7,1.4,1.3,1.5,2c0.3,1.7,0.6,3.5,0.2,5.2c-1.3,5.7-0.3,11.2,1.2,16.6c3.1,11.6,7.3,22.9,13.8,33.1c1.4,2.1,2.9,4.2,4.4,6.5
	c0.7-5.7,1.3-11.1,2.1-16.4c1.6-10.5,4.3-20.8,7.2-31c0.3-1.1,0.3-2.4,0.4-3.5c0.3-3.4,0.5-6.8,1-10.2c0.1-1,0.8-2,1.4-2.9
	c0.3-0.4,1.2-1,1.4-0.8c0.6,0.4,1.4,1.1,1.4,1.6c-0.1,2.9,0.3,6.1-0.8,8.5c-6.3,13.8-9,28.5-11.3,43.3c-0.5,3.2-0.7,6.5-1.1,9.7
	c-0.1,1.2,0.3,1.7,1.5,2.2c1.3,0.6,2.2,1.8,3.2,2.6c0.7-3.4,1.5-7.2,2.3-11c2.6-12.3,6.5-24.1,11-35.7c6.5-16.8,17.8-30.1,30.1-42.8
	c6.3-6.5,12.8-12.7,20.4-17.6c3-2,6.3-3.5,9.7-4.8c1.4-0.5,3.3-0.4,4.7,0.1c6.7,2.1,10.4,7.1,12.4,13.5c1.8,5.8,1.9,11.7,1.2,17.8
	c-0.1,0.9,0.4,2.2,1.1,2.8c3,2.7,3.5,6.1,3.8,9.8c0.2,2.3,0.7,4.6,1.3,6.9c0.6,2.1,0.8,4.1,0.1,6.2c-0.6,1.7-1.2,3.4-1.7,5.1
	c-0.6,1.7-0.7,3.4-0.8,5.2c-0.1,2.3-1.2,4.6-2.1,6.8c-0.6,1.4-1.7,2.6-2.7,3.8c-1.7,2.1-3.2,4.1-3.5,7c-0.2,1.3-1.4,2.7-2.4,3.7
	c-1.1,1.1-2.5,2.2-3.9,2.8C207.6,123.9,205.1,126.6,202.4,129.6z"/>
<g>
	<path d="M346.8,104.3c3.1,3,4.8,7,5,11.9v40.6h-14.3v-35.1c-0.2-2.9-0.8-5.2-1.9-6.8c-1.1-1.6-3-2.5-5.5-2.6c-4.5,0-8.1,2-10.8,6
		c-2.8,4-4.2,8.7-4.3,14v24.5h-14.6v-35.1c-0.2-2.8-0.8-5.1-2-6.7c-1.2-1.6-3.1-2.5-5.7-2.7c-2.9,0-5.5,0.9-7.7,2.8
		c-2.2,1.9-4,4.4-5.2,7.5c-1.2,3.1-1.9,6.3-1.9,9.7v24.5h-14.4v-54.6h13l1.2,9.5c2.1-3.9,4.9-6.8,8.4-8.9c3.5-2.1,7.6-3.1,12.1-3.1
		c4.4,0,8.1,1,11,2.9c3,1.9,4.9,4.7,5.9,8.3c2.2-3.5,5.1-6.3,8.5-8.3c3.4-2,7-3,10.7-3C339.4,99.8,343.6,101.3,346.8,104.3z"/>
	<path d="M428.7,102.3v54.6h-14.4V149c-2,2.3-4.6,4.4-8,6.4c-3.4,1.9-7.3,2.9-11.7,2.9c-5.2,0-9.9-1.1-14.1-3.3
		c-4.1-2.2-7.4-5.4-9.8-9.7c-2.4-4.3-3.6-9.5-3.6-15.6c0-5.9,1.2-11.2,3.7-15.7c2.5-4.5,5.8-8,10-10.4c4.2-2.5,8.7-3.7,13.7-3.7
		c8.9,0,15.5,3.3,19.9,9.8l1-7.4H428.7z M408.5,143.3c2.7-2,4.6-4.9,5.7-8.6v-11.9c-1-3.4-3-6.1-6-8.1c-3-2.1-6.4-3.1-10.3-3.1
		c-4.6,0-8.4,1.6-11.6,4.8c-3.2,3.2-4.8,7.3-4.8,12.3c0,3.3,0.8,6.2,2.3,8.9c1.5,2.7,3.6,4.8,6.2,6.3s5.4,2.3,8.4,2.3
		C402.5,146.4,405.8,145.4,408.5,143.3z"/>
	<path d="M469,107c2.7-2.3,5.4-4.1,8.2-5.4c2.8-1.2,5.1-1.9,7-1.9l-0.6,14.4c-4-0.3-7.5,0.4-10.6,2.1c-3.1,1.8-5.5,4.2-7.2,7.2
		c-1.7,3.1-2.6,6.3-2.6,9.7v23.5h-14.4v-54.6h13l1,12.6C464.2,112,466.3,109.4,469,107z"/>
	<path d="M554.6,102.3v54.6h-14.4V149c-2,2.3-4.6,4.4-8,6.4s-7.3,2.9-11.7,2.9c-5.2,0-9.9-1.1-14.1-3.3c-4.1-2.2-7.4-5.4-9.8-9.7
		c-2.4-4.3-3.6-9.5-3.6-15.6c0-5.9,1.2-11.2,3.7-15.7c2.5-4.5,5.8-8,10-10.4c4.2-2.5,8.7-3.7,13.7-3.7c8.9,0,15.5,3.3,19.9,9.8
		l1-7.4H554.6z M534.4,143.3c2.7-2,4.6-4.9,5.7-8.6v-11.9c-1-3.4-3-6.1-6-8.1c-3-2.1-6.4-3.1-10.3-3.1c-4.6,0-8.4,1.6-11.6,4.8
		c-3.2,3.2-4.8,7.3-4.8,12.3c0,3.3,0.8,6.2,2.3,8.9c1.5,2.7,3.6,4.8,6.2,6.3c2.6,1.5,5.4,2.3,8.4,2.3
		C528.4,146.4,531.7,145.4,534.4,143.3z"/>
	<path d="M622.9,104.5c3.4,3.1,5.1,7,5.2,11.8v40.5h-14.4v-35.3c-0.2-2.8-1-5.1-2.5-6.7c-1.5-1.6-3.8-2.5-6.8-2.6
		c-4.5,0-8.1,1.9-11,5.8c-2.9,3.9-4.3,8.7-4.3,14.6v24.2h-14.4V56.2h14.2v55.3c2.1-3.5,4.9-6.3,8.6-8.4c3.7-2.1,7.9-3.2,12.8-3.2
		C615.3,99.9,619.5,101.5,622.9,104.5z"/>
	<path d="M700.5,102.3v54.6h-13l-0.9-9.8c-1.9,3.7-4.7,6.6-8.4,8.8c-3.7,2.2-7.9,3.3-12.6,3.3c-5,0-9.1-1.5-12.4-4.6
		c-3.3-3.1-5-7-5.1-11.8v-40.5h14.4v35.3c0.3,6,3.2,9.1,8.9,9.2c4.2,0,7.7-1.9,10.5-5.8c2.8-3.9,4.2-8.7,4.2-14.6v-24.1H700.5z"/>
	<path d="M774.4,102.3L739.2,183H725l12.8-28.5l-25.3-52.2h16.3l16.3,36.1l16.3-36.1H774.4z"/>
	<path d="M783.6,114.1c2.6-4.5,6.3-8,10.9-10.5c4.6-2.5,9.9-3.8,15.9-3.8c5.9,0,11.2,1.3,15.8,3.8c4.6,2.5,8.1,6,10.6,10.4
		c2.5,4.4,3.7,9.4,3.7,14.9c0,5.5-1.2,10.5-3.7,14.9c-2.5,4.4-6,7.9-10.6,10.5c-4.6,2.6-9.9,3.9-15.9,3.9c-5.8,0-11.1-1.2-15.7-3.5
		c-4.6-2.4-8.3-5.8-10.9-10.2c-2.6-4.4-3.9-9.6-3.9-15.5C779.7,123.5,781,118.6,783.6,114.1z M798.8,141.4c3,3.3,6.7,5,11.2,5
		c4.6,0,8.4-1.6,11.4-4.9c3-3.3,4.4-7.4,4.4-12.4c0-5-1.5-9.1-4.4-12.4c-3-3.3-6.8-5-11.4-5c-4.5,0-8.2,1.7-11.2,5.1
		c-3,3.4-4.5,7.5-4.5,12.3C794.2,134,795.7,138.1,798.8,141.4z"/>
</g>
</svg>
