<?xml version="1.0" encoding="utf-8"?>
<!-- Generator: Adobe Illustrator 22.1.0, SVG Export Plug-In . SVG Version: 6.00 Build 0)  -->
<svg version="1.1" id="Layer_1" xmlns="http://www.w3.org/2000/svg" xmlns:xlink="http://www.w3.org/1999/xlink" x="0px" y="0px"
	 viewBox="0 0 860 248" style="enable-background:new 0 0 860 248;" xml:space="preserve">
<path d="M204.4,128c7,0,13.5,1.5,19.7,3.8c8.7,3.3,16,8.4,20.2,17.1c1.7,3.4,1.6,6.8-0.3,10.2c-0.4,0.7-0.5,1.6-0.4,2.3
	c0.5,3,0.6,5.8-1.7,8.3c-0.6,0.7-0.7,1.9-0.9,2.9c-0.5,3-0.8,6.1-3.2,8.5c-0.3,0.3-0.3,0.9-0.4,1.3c-0.1,1.4-0.2,2.9-0.3,4.3
	c-0.1,2.6-0.9,4.7-3.3,6c-0.3,0.2-0.6,0.5-0.8,0.8c-2.2,4.3-6.4,6.2-10.2,8.7c-2.3,1.5-4.8,1.7-7.4,1.9c-1.5,0.1-3.1,0.4-4.6,0.8
	c-8.2,2.1-16,1.3-23.4-3c-13.4-7.9-24.9-18-36.2-28.5c-0.4-0.4-0.9-0.8-1.3-1.3c-0.1-0.1-0.2-0.1-0.7-0.4c1.6,2.9,3.2,5.4,4.5,8
	c1.8,3.5,3.4,7,5,10.6c1.8,3.9,3.6,7.9,5.1,11.9c1.5,4.1,2.7,8.3,1.9,12.7c0,0.2-0.1,0.5-0.3,1.1c-1.5-0.6-3.2-0.7-4.1-1.7
	c-3.9-4-7.9-8-11.1-12.5c-2-2.9-3.5-6.2-5.3-9.3c-1.9-3.3-3.1-7-4.6-10.6c-0.2-0.6-0.6-1.1-1.2-1.6c0.6,3,1.3,6,1.7,9
	c0.9,7.1,1.8,14.1,2.6,21.2c0.4,3.3-0.7,6.1-2.4,9.2c-3.2,5.8-7.5,8.1-14,7.5c-3.2-0.3-5.9-0.5-8.2-2.8c-0.4-0.4-1.1-0.5-1.6-0.5
	c-2,0.1-3.6-0.8-5-2.2c-0.6-0.6-1.2-1.2-1.7-1.9c-1.5-2.1-3-3.9-5.7-4.8c-1.3-0.4-2.3-1.7-3.4-2.6c-2.1-1.9-3.9-4-6.8-4.9
	c-2.3-0.7-3.2-3.1-4.2-5.2c-0.3-0.7-0.9-1.5-1.6-1.8c-3.8-1.5-5.3-4.5-5.6-8.3c-0.8-7.7,0-15.2,4-22.1c2.4-4.2,5.2-8.1,9.4-10.9
	c1.4-0.9,2.8-1.9,4.5-3.1c-2.4-0.2-4.4-0.4-6.5-0.6c-10.5-0.8-20.8-2.7-30.3-7.6c-3.6-1.9-6.9-4.1-9.2-7.6c-1-1.5-2.4-2.9-3.7-4.2
	c-2.1-2-3.2-4.4-3-7.3c0.2-2.3-0.9-3.7-2.7-5.1c-4-3-6.8-6.9-7.1-12.2c-0.1-1-0.8-2.2-1.6-2.9c-3.1-2.9-4.6-6.5-4.5-10.7
	c0-3-1-5.1-3.4-7.1c-4-3.2-6.7-7.3-6.9-12.8c-0.2-5.4,4.6-12.6,12.1-11.6c3.7,0.5,7.3,1.6,10.8,2.9c6.6,2.6,12.3,6.8,18.1,10.8
	c12.7,8.7,24.2,18.8,34.7,30.1c9.1,9.7,16.7,20.5,24,31.5c0.3,0.5,0.7,1,1.1,1.5c0.3-1.3,0.8-2.6,0.9-3.8c0.1-0.8-0.3-1.7-0.7-2.5
	c-2.6-4.6-5.6-9-8-13.8c-5.2-10.5-8.9-21.5-10.7-33.1c-0.1-0.7-0.2-1.5-0.6-2.1c-2.5-3.7-1.8-7.6-0.8-11.5c0.2-0.7,1.1-1.3,1.7-1.9
	c0.5,0.7,1.4,1.3,1.5,2c0.3,1.7,0.6,3.5,0.2,5.2c-1.3,5.7-0.3,11.2,1.2,16.6c3.1,11.6,7.3,22.9,13.8,33.1c1.4,2.1,2.9,4.2,4.4,6.5
	c0.7-5.7,1.3-11.1,2.1-16.4c1.6-10.5,4.3-20.8,7.2-31c0.3-1.1,0.3-2.4,0.4-3.5c0.3-3.4,0.5-6.8,1-10.2c0.1-1,0.8-2,1.4-2.9
	c0.3-0.4,1.2-1,1.4-0.8c0.6,0.4,1.4,1.1,1.4,1.6c-0.1,2.9,0.3,6.1-0.8,8.5c-6.3,13.8-9,28.5-11.3,43.3c-0.5,3.2-0.7,6.5-1.1,9.7
	c-0.1,1.2,0.3,1.7,1.5,2.2c1.3,0.6,2.2,1.8,3.2,2.6c0.7-3.4,1.5-7.2,2.3-11c2.6-12.3,6.5-24.1,11-35.7c6.5-16.8,17.8-30.1,30.1-42.8
	c6.3-6.5,12.8-12.7,20.4-17.6c3-2,6.3-3.5,9.7-4.8c1.4-0.5,3.3-0.4,4.7,0.1c6.7,2.1,10.4,7.1,12.4,13.5c1.8,5.8,1.9,11.7,1.2,17.8
	c-0.1,0.9,0.4,2.2,1.1,2.8c3,2.7,3.5,6.1,3.8,9.8c0.2,2.3,0.7,4.6,1.3,6.9c0.6,2.1,0.8,4.1,0.1,6.2c-0.6,1.7-1.2,3.4-1.7,5.1
	c-0.6,1.7-0.7,3.4-0.8,5.2c-0.1,2.3-1.2,4.6-2.1,6.8c-0.6,1.4-1.7,2.6-2.7,3.8c-1.7,2.1-3.2,4.1-3.5,7c-0.2,1.3-1.4,2.7-2.4,3.7
	c-1.1,1.1-2.5,2.2-3.9,2.8C209.6,122.3,207.1,125,204.4,128z"/>
<g>
	<path d="M371.6,114.7c2.8,2.7,4.2,6.1,4.4,10.5V161h-12.6v-30.9c-0.2-2.6-0.7-4.6-1.7-6c-1-1.4-2.6-2.2-4.9-2.3
		c-3.9,0-7.1,1.8-9.6,5.3c-2.4,3.5-3.7,7.6-3.8,12.3V161h-12.9v-30.9c-0.2-2.5-0.7-4.5-1.8-5.9c-1-1.4-2.7-2.2-5.1-2.4
		c-2.6,0-4.9,0.8-6.8,2.5c-2,1.7-3.5,3.9-4.6,6.6c-1.1,2.7-1.6,5.6-1.6,8.5V161H298v-48.1h11.5l1,8.4c1.8-3.4,4.3-6,7.4-7.8
		c3.1-1.8,6.7-2.7,10.7-2.7c3.9,0,7.1,0.9,9.7,2.6c2.6,1.7,4.3,4.2,5.2,7.3c2-3.1,4.5-5.5,7.5-7.3c3-1.7,6.2-2.6,9.4-2.6
		C365.1,110.7,368.8,112,371.6,114.7z"/>
	<path d="M443.9,112.9V161h-12.7v-6.9c-1.7,2-4.1,3.9-7.1,5.6c-3,1.7-6.4,2.6-10.4,2.6c-4.6,0-8.8-1-12.4-2.9
		c-3.6-1.9-6.5-4.8-8.6-8.6c-2.1-3.8-3.2-8.4-3.2-13.8c0-5.2,1.1-9.8,3.3-13.8c2.2-4,5.1-7.1,8.8-9.2c3.7-2.2,7.7-3.2,12.1-3.2
		c7.8,0,13.7,2.9,17.5,8.6l0.9-6.5H443.9z M426.1,149.1c2.4-1.8,4.1-4.3,5.1-7.6v-10.5c-0.9-3-2.7-5.3-5.3-7.2
		c-2.6-1.8-5.6-2.7-9-2.7c-4,0-7.4,1.4-10.2,4.3c-2.8,2.8-4.2,6.5-4.2,10.9c0,2.9,0.7,5.5,2,7.9c1.4,2.4,3.2,4.2,5.5,5.6
		c2.3,1.4,4.7,2,7.4,2C420.8,151.8,423.7,150.9,426.1,149.1z"/>
	<path d="M504.1,114.9c3,2.7,4.5,6.2,4.6,10.4V161H496v-31.2c-0.2-2.5-0.9-4.5-2.2-5.9c-1.3-1.4-3.3-2.2-6-2.3
		c-3.9,0-7.2,1.7-9.7,5.1c-2.5,3.4-3.8,7.7-3.8,12.9V161h-12.7V72.3H474v48.8c1.8-3.1,4.3-5.6,7.6-7.5c3.2-1.9,7-2.8,11.3-2.8
		C497.4,110.8,501.1,112.2,504.1,114.9z"/>
	<path d="M576.6,112.9V161h-12.7v-6.9c-1.7,2-4.1,3.9-7.1,5.6c-3,1.7-6.4,2.6-10.4,2.6c-4.6,0-8.8-1-12.4-2.9
		c-3.6-1.9-6.5-4.8-8.6-8.6c-2.1-3.8-3.2-8.4-3.2-13.8c0-5.2,1.1-9.8,3.3-13.8c2.2-4,5.1-7.1,8.8-9.2c3.7-2.2,7.7-3.2,12.1-3.2
		c7.8,0,13.7,2.9,17.5,8.6l0.9-6.5H576.6z M558.8,149.1c2.4-1.8,4.1-4.3,5.1-7.6v-10.5c-0.9-3-2.7-5.3-5.3-7.2
		c-2.6-1.8-5.6-2.7-9-2.7c-4,0-7.4,1.4-10.2,4.3c-2.8,2.8-4.2,6.5-4.2,10.9c0,2.9,0.7,5.5,2,7.9c1.4,2.4,3.2,4.2,5.5,5.6
		c2.3,1.4,4.7,2,7.4,2C553.5,151.8,556.5,150.9,558.8,149.1z"/>
	<path d="M612.1,117.1c2.3-2,4.8-3.6,7.2-4.7c2.5-1.1,4.5-1.7,6.2-1.7l-0.6,12.7c-3.5-0.3-6.6,0.3-9.3,1.9c-2.7,1.6-4.9,3.7-6.4,6.4
		c-1.5,2.7-2.3,5.6-2.3,8.6V161h-12.7v-48.1h11.5l0.9,11.1C608,121.4,609.8,119.1,612.1,117.1z"/>
	<path d="M684.9,112.9V161h-11.5l-0.8-8.6c-1.7,3.3-4.1,5.9-7.4,7.8c-3.3,1.9-7,2.9-11.1,2.9c-4.4,0-8.1-1.3-11-4
		c-2.9-2.7-4.4-6.2-4.5-10.4v-35.7h12.7V144c0.2,5.3,2.8,8,7.8,8.1c3.7,0,6.8-1.7,9.3-5.1c2.5-3.4,3.7-7.7,3.7-12.9v-21.3H684.9z"/>
	<path d="M750.1,112.9l-31.1,71.2h-12.5l11.3-25.1l-22.3-46.1h14.3l14.3,31.9l14.3-31.9H750.1z"/>
	<path d="M758.3,123.3c2.3-3.9,5.5-7,9.6-9.3c4.1-2.2,8.8-3.4,14-3.4c5.2,0,9.9,1.1,13.9,3.4c4.1,2.2,7.2,5.3,9.4,9.2
		c2.2,3.9,3.3,8.3,3.3,13.1c0,4.9-1.1,9.2-3.3,13.1c-2.2,3.9-5.3,7-9.4,9.3c-4.1,2.3-8.7,3.4-14,3.4c-5.2,0-9.8-1-13.9-3.1
		c-4.1-2.1-7.3-5.1-9.6-9c-2.3-3.9-3.5-8.5-3.5-13.7C754.8,131.6,755.9,127.3,758.3,123.3z M771.6,147.4c2.7,2.9,6,4.4,9.9,4.4
		c4.1,0,7.5-1.4,10.1-4.3c2.6-2.9,3.9-6.5,3.9-10.9c0-4.4-1.3-8.1-3.9-11c-2.6-2.9-6-4.4-10.1-4.4c-3.9,0-7.2,1.5-9.9,4.5
		c-2.7,3-4,6.6-4,10.9C767.6,140.9,769,144.5,771.6,147.4z"/>
</g>
</svg>
